# xmcd CD database file
#
# Track frame offsets:
#	150
#	38300
#	97072
#	109242
#	124279
#	188363
#
# Disc length: 2535 seconds
#
# Revision: 0
# Processed by: cddbd v1.5.1PL2 Copyright (c) Steve Scherf et al.
# Submitted via: CDex 1.51
#
DISCID=4409e506
DTITLE=Miles Davis - Fillmore East 1970 (Disc1)
DYEAR=1900
DGENRE=Jazz
TTITLE0=Directions
TTITLE1=Miles Runs Voodoo Down
TTITLE2=I Fall IN Love Easiliy
TTITLE3=Sansctuary
TTITLE4=It's About That Time
TTITLE5=The Theme
EXTD=
EXTT0=
EXTT1=
EXTT2=
EXTT3=
EXTT4=
EXTT5=
PLAYORDER=
